<?xml version="1.0" encoding="UTF-8" standalone="no"?>
<svg
   version="1.1"
   id="Layer_1"
   x="0px"
   y="0px"
   width="507.57379"
   viewBox="0 0 507.57379 531.76208"
   enable-background="new 0 0 1024 1024"
   xml:space="preserve"
   sodipodi:docname="renthouse.svg"
   height="531.76208"
   inkscape:version="1.1 (c4e8f9e, 2021-05-24)"
   xmlns:inkscape="http://www.inkscape.org/namespaces/inkscape"
   xmlns:sodipodi="http://sodipodi.sourceforge.net/DTD/sodipodi-0.dtd"
   xmlns="http://www.w3.org/2000/svg"
   xmlns:svg="http://www.w3.org/2000/svg"><sodipodi:namedview
   id="namedview831"
   pagecolor="#ffffff"
   bordercolor="#666666"
   borderopacity="1.0"
   inkscape:pageshadow="2"
   inkscape:pageopacity="0.0"
   inkscape:pagecheckerboard="0"
   showgrid="false"
   inkscape:zoom="0.43288837"
   inkscape:cx="271.43256"
   inkscape:cy="303.77347"
   inkscape:window-width="1312"
   inkscape:window-height="997"
   inkscape:window-x="184"
   inkscape:window-y="25"
   inkscape:window-maximized="0"
   inkscape:current-layer="Layer_1" /><defs
   id="defs8916" />

<path
   fill="#000000"
   opacity="1"
   stroke="none"
   d="m 0.12673643,344.45267 c -0.0319,-58.60547 -0.30429,-116.74802 0.0645,-174.88651 0.11688,-18.42545 0.41824,-36.93561 3.80898997,-55.20374 C 9.2260864,86.207301 23.251476,62.658081 42.661576,42.323151 68.978706,14.752101 101.75041,1.2000413 139.78316,0.36635133 c 9.49466,-0.20813 19.0079,0.2696 28.49569,-0.0576 16.94538,-0.58446 33.30231,1.35212997 49.66703,6.50202997 18.90265,5.9485797 38.59338,5.1276197 57.86114,0.88031 19.54602,-4.30867 38.95398,-8.74814 59.22302,-7.46676997 9.29535,0.58768 18.667,0.33205 27.99073,0.0372 24.83069,-0.78522 47.8211,6.03469997 69.40014,17.50000967 27.82471,14.78382 48.11438,37.1738 61.33869,65.61396 6.68036,14.36688 10.32074,29.825039 11.61303,45.709129 3.57294,43.91797 1.5896,87.92395 1.94916,131.89072 0.28906,35.32929 0.14392,70.66235 0.13507,105.99377 -0.005,17.94104 1.04499,35.96552 -3.05865,53.65638 -3.62402,15.62317 -9.32984,30.35784 -18.03961,43.99597 -10.50641,16.45166 -22.83588,31.07947 -38.98584,42.20843 -19.92102,13.72766 -41.37671,23.24994 -66.052,24.18469 -33.6413,1.27442 -67.28547,0.54047 -100.92939,0.50794 -20.81396,-0.0201 -41.6282,0.0988 -62.44183,0.0203 -27.30936,-0.10296 -54.62171,-0.65472 -81.92557,-0.3562 -10.36047,0.11328 -20.53827,0.31604 -30.72113,-2.08899 C 86.106366,524.56376 69.256966,515.54258 53.996656,503.28568 25.034616,480.02372 7.8926164,450.08378 2.5870164,413.23606 0.43811643,398.31169 0.75477643,383.36137 0.66095643,368.39066 c -0.049,-7.82702 0.29017,-15.66339 -0.53418,-23.93798 M 58.295326,386.09104 c -0.40588,13.85004 1.41718,27.60388 7.54126,39.87909 15.31742,30.70227 40.190194,48.00916 75.083354,48.16516 75.3302,0.33692 150.66339,0.26758 225.99414,0.006 14.44793,-0.0503 28.43676,-3.49372 40.7514,-11.62799 25.26386,-16.68769 40.04596,-39.46784 40.20911,-70.49549 0.0596,-11.33221 -0.0982,-22.66552 -0.10974,-33.99829 -0.002,-2.10321 -0.38843,-4.36896 2.89935,-4.76965 7.59192,-0.92536 14.32776,-4.05573 20.5885,-8.38916 25.91724,-17.93903 27.30957,-52.76605 11.45007,-72.3266 -6.38867,-7.87952 -14.96752,-12.49091 -24.17932,-16.26483 -4.99353,-2.04578 -9.74841,-4.78775 -10.67846,-10.87164 -0.5763,-3.77006 -0.93341,-7.60398 -1.00306,-11.41627 -0.55645,-30.47686 0.99439,-60.98233 -1.13934,-91.43603 -0.75769,-10.81406 -2.1618,-21.66345 -6.32239,-31.68991 -11.03894,-26.602749 -31.13128,-42.995149 -58.86053,-50.131259 -12.50482,-3.21808 -25.39325,-3.61947 -38.17304,-3.66934 -59.16241,-0.23093 -118.32623,-0.13098 -177.48953,-0.10434 -20.53699,0.009 -40.48541,3.08102 -58.9653,12.59455 -25.713444,13.23742 -41.504854,33.856719 -45.412354,62.827199 -2.22928,16.52814 -2.28095,33.18824 -2.16205,49.84961 0.13916,19.49836 -0.0313,38.99872 -0.0222,58.49823 0.004,8.16681 -2.11935,14.76181 -11.21017,17.01023 -2.20661,0.54574 -4.24716,1.9049 -6.26026,3.06949 -23.97476,13.86975 -30.39477,36.63604 -23.08206,60.39062 4.95642,16.1004 17.17987,27.23517 34.31909,31.18695 4.98832,1.15015 6.25809,3.56531 6.12744,8.22492 -0.22866,8.15796 0.0336,16.32971 0.10605,25.48919 z"
   id="path8905"
   style="fill:#2a8795;fill-opacity:1" />
<path
   fill="#000000"
   opacity="1"
   stroke="none"
   d="m 308.65146,209.99637 c -17.23413,-18.11408 -35.35186,-34.86914 -51.92065,-53.14182 -4.3006,-4.74286 -6.20923,-4.80172 -10.21393,-0.67355 -28.40033,29.27603 -56.87982,58.47168 -85.66809,87.36999 -25.50375,25.60117 -50.58426,51.62409 -75.841804,77.47046 -6.63433,6.78906 -15.36728,8.85486 -23.75494,5.56024 -8.88886,-3.49145 -13.04358,-10.08123 -13.63403,-20.10986 -0.67072,-11.39233 3.97128,-20.24231 11.74811,-28.02289 32.25915,-32.2745 64.515474,-64.55234 96.654174,-96.94668 26.6217,-26.83347 53.62866,-53.29132 79.46432,-80.89612 10.31183,-11.017919 22.31589,-11.228459 32.98716,-0.42166 40.71661,41.23385 81.42138,82.47934 122.15558,123.6958 18.73285,18.95471 37.47766,37.89801 56.3103,56.75342 7.61029,7.6195 11.8197,16.47027 10.39776,27.35724 -1.18145,9.04565 -6.27594,15.40893 -14.90826,18.31201 -8.87274,2.98401 -17.53094,2.83978 -24.39722,-4.77643 -34.81952,-38.62189 -72.60687,-74.32965 -109.37848,-111.53015 z"
   id="path8907"
   style="fill:#2a8795;fill-opacity:1" />
<path
   fill="#000000"
   opacity="1"
   stroke="none"
   d="m 316.81058,406.6127 c 0.0175,-21.4986 -0.13714,-42.49963 0.15082,-63.49457 0.10309,-7.51727 -3.0874,-13.14154 -8.07849,-18.10492 -12.2865,-12.21808 -24.57416,-24.4367 -37.01715,-36.49444 -4.09735,-3.97052 -8.88001,-7.01581 -14.84302,-7.56354 -6.8576,-0.62982 -12.47046,2.17816 -17.07492,6.80627 -13.27362,13.34168 -26.35907,26.87085 -39.4938,40.35035 -5.11252,5.2467 -7.36545,11.29028 -7.24775,18.89532 0.39722,25.65936 -0.20471,51.33618 0.33435,76.99042 0.2725,12.9671 -9.3345,24.75958 -22.03567,25.87573 -12.60632,1.10785 -23.7558,-8.9563 -25.7843,-22.9101 -1.0365,-7.13018 -0.84964,-14.29162 -0.8692,-21.44598 -0.0815,-29.83124 -0.013,-59.66302 -0.17164,-89.49371 -0.0471,-8.8515 2.97281,-16.01044 9.23481,-22.33026 20.75387,-20.94556 41.29583,-42.10184 61.82971,-63.26401 4.51745,-4.6557 8.98837,-9.4224 12.9249,-14.56357 11.67623,-15.24945 30.83032,-14.59515 43.36163,-2.59293 9.73285,9.322 18.79132,19.34586 28.20495,29.00379 17.32038,17.76987 34.33844,35.83865 52.29187,52.98385 6.4021,6.11396 10.00104,13.12769 10.00446,22.44513 0.0129,35.64307 0.64392,71.28541 0.85461,106.92914 0.0867,14.66303 -11.1687,25.48725 -25.78942,25.33197 -10.08136,-0.10705 -18.07282,-7.75158 -19.88788,-18.91082 -1.29315,-7.95063 -0.68054,-15.95942 -0.89887,-24.44312 z"
   id="path8909"
   style="fill:#2a8795;fill-opacity:1" />
<path
   fill="#000000"
   opacity="1"
   stroke="none"
   d="m 358.22617,157.4219 c -6.91247,-6.74667 -13.60663,-13.14483 -20.85126,-19.07293 -11.9685,-9.79346 -14.02478,-25.84055 -4.5296,-40.002839 8.2992,-12.3783 25.55042,-15.86069 38.13349,-7.76297 10.16711,6.54303 17.67004,16.092679 26.24365,24.418489 7.51105,7.29394 14.71771,14.90106 22.07886,22.35006 0.93365,0.9448 1.85077,2.22092 3.01031,2.57514 6.49121,1.983 6.05658,7.03027 6.02216,12.25967 -0.1424,21.63846 -0.0861,43.2782 -0.1391,64.91736 -0.004,1.7865 0.41369,3.66419 -1.41028,6.53101 -24.06989,-20.88944 -45.67981,-43.96924 -68.55823,-66.21299 z"
   id="path8911"
   style="fill:#2a8795;fill-opacity:1" />
</svg>
